<svg xmlns="http://www.w3.org/2000/svg" preserveAspectRatio="xMidYMid" width="137" height="22" viewBox="0 0 136.5 21.59"><path d="M131.694 2.397v18.9h-2.7v-18.9h-4.8v-2.1h12.3v2.1h-4.8zM121.3 13.512a3.86 3.86 0 0 1-1.77 1.26c-.7.25-1.555.375-2.535.375-.46 0-.98-.03-1.56-.1l-1.44-.2v6.45h-2.7V.597a14.15 14.15 0 0 1 2.295-.465c.77-.1 1.605-.135 2.505-.135 1.2 0 2.22.125 3.06.375s1.52.665 2.04 1.245.9 1.35 1.14 2.3.36 2.15.36 3.57c0 1.46-.115 2.68-.345 3.66s-.58 1.765-1.05 2.355zm-1.53-8.715c-.15-.72-.385-1.3-.705-1.7a2.55 2.55 0 0 0-1.215-.885c-.5-.17-1.075-.255-1.755-.255h-2.1v11.1h2.1c.68 0 1.265-.085 1.755-.255a2.55 2.55 0 0 0 1.215-.885c.32-.42.555-1 .705-1.7s.225-1.62.225-2.7-.075-1.98-.225-2.7zm-15.225 11.1h-6l-1.35 5.4h-2.7l5.1-21h3.9l5.1 21h-2.7l-1.35-5.4zm-2.94-12.6h-.12l-2.5 10.5h5.1l-2.5-10.5zm-12.96 2.4h-.15l-4.35 12.9h-2.7l-4.35-12.9h-.15l-.9 15.6h-2.7l1.2-21h3.3l4.9 14.4h.12l4.9-14.4h3.3l1.2 21h-2.7l-.9-15.6zm-20.16 13.65c-.56.82-1.235 1.4-2.025 1.74s-1.695.5-2.715.5-1.925-.17-2.715-.5-1.465-.92-2.025-1.74-.985-1.925-1.275-3.315-.435-3.135-.435-5.235.145-3.845.435-5.235.715-2.495 1.275-3.315S60.24.847 61.03.507s1.695-.5 2.715-.5 1.925.17 2.715.5 1.465.92 2.025 1.74.985 1.925 1.275 3.315.435 3.135.435 5.235-.145 3.845-.435 5.235-.715 2.495-1.275 3.315zm-1.305-13c-.2-1.16-.485-2.08-.825-2.76s-.74-1.15-1.2-1.4-.93-.4-1.4-.4-.95.13-1.4.4-.86.73-1.2 1.4-.615 1.6-.825 2.76-.315 2.64-.315 4.44.105 3.28.315 4.44.485 2.08.825 2.76.74 1.15 1.2 1.4.93.4 1.4.4.95-.13 1.4-.4.86-.73 1.2-1.4.615-1.6.825-2.76.315-2.64.315-4.44-.105-3.28-.315-4.44zm-16.185 5.34h-6.3v9.6h-2.7v-21h2.7v9.3h6.3v-9.3h2.7v21h-2.7v-9.6zm-14.25 9.6l-3.75-9-3.75 9h-2.7l4.5-10.8-4.05-10.2h2.7l3.3 8.4 3.3-8.4h2.7l-4.05 10.2 4.5 10.8h-2.7zm-22.05-21h10.2v2.1h-7.5v6.9h6.6v2.1h-6.6v7.8h7.5v2.1h-10.2v-21zm-7.2 21h-2.7v-18.9h-4.8v-2.1h12.3v2.1h-4.8v18.9z" fill="#fff" fill-rule="evenodd"/></svg>